<svg width="259" height="252" viewBox="0 0 259 252" fill="none" xmlns="http://www.w3.org/2000/svg">
<path d="M225.553 234C225.963 229.869 222.702 227.142 218.553 227C214.273 226.853 212.665 230.033 211.053 234C209.363 238.161 211.553 243 214.053 245.5C216.553 248 219.57 250.225 225.553 250.5C232.466 250.818 236.872 250.088 242.053 245.5C246.761 241.331 248.328 237.167 249.553 231C250.504 226.212 251.029 223.153 249.553 218.5C247.587 212.302 244.618 206.845 238.553 204.5C233.818 202.669 228.573 201.919 225.553 206C222.504 210.12 224.438 213 227.053 215C235.553 221.5 245.765 214.824 251.053 204.5C261.558 183.992 226.024 177.773 216.053 157C210.053 144.5 209.784 132.109 213.053 119.5C216.382 106.658 225.086 94.6992 238.053 97.5C247.863 99.6189 255.053 113 247.553 120.5C235.508 132.545 208.553 118.523 208.553 96.5C208.553 71.5 247.553 78 252.053 65.5C258.293 48.1679 246.335 36.9314 250.553 19C252.322 11.4807 256.553 2 256.553 2C256.553 2 248.1 4.75012 242.553 6C221.028 10.8501 205.602 -4.23295 186.053 6C166.949 16.0007 172.027 49.9666 150.553 48C134.186 46.5011 121.23 30.3691 132.053 18C140.553 8.28571 150.553 14.5 152.053 22C155.653 40 134.053 44 119.553 45C104.573 46.0332 95.4892 43.2053 82.0532 36.5C67.9349 29.4541 61.5531 16 51.5532 10C44.525 5.78296 33.6272 6.71828 31.0532 14.5C28.5632 22.0281 33.5531 38 43.5532 30.5C52.052 24.126 39.0529 16.5 32.5531 14.5C26.0533 12.5 11.8149 14.0665 7.05328 19.5C0.747347 26.6958 -1.25393 33.539 4.05328 41.5C7.05322 46 16.8085 45.1439 17.5532 39.5C18.0921 35.4163 14.527 30.9155 10.5532 32C6.57949 33.0845 8.55322 36.5 8.55322 36.5" stroke="#5E3023" stroke-width="2"/>
</svg>
