<svg width="261" height="264" viewBox="0 0 261 264" fill="none" xmlns="http://www.w3.org/2000/svg">
<path d="M56.7813 18.6762C55.9475 22.7429 58.9093 25.7914 63.0213 26.3613C67.2632 26.9493 69.1907 23.9527 71.2038 20.1729C73.315 16.209 71.6356 11.1694 69.407 8.42466C67.1784 5.67997 64.4075 3.15595 58.4844 2.26433C51.6414 1.23423 47.1832 1.50599 41.5566 5.53452C36.444 9.19503 34.4549 13.1749 32.5998 19.1829C31.1596 23.8472 30.3218 26.8356 31.3096 31.6161C32.6253 37.9842 35.0154 43.7181 40.8059 46.6768C45.3268 48.9867 50.4661 50.2741 53.8911 46.5266C57.3489 42.7433 55.7232 39.6792 53.3283 37.4199C45.5446 30.0773 34.6983 35.6635 28.3727 45.3866C15.8073 64.7007 50.5093 74.5546 58.2828 96.2455C62.9605 109.298 61.9487 121.651 57.396 133.855C52.7593 146.285 42.8677 157.281 30.2588 153.157C20.7195 150.037 14.9495 135.985 23.1835 129.299C36.4071 118.562 61.7711 135.291 59.498 157.197C56.9175 182.063 18.7967 171.572 13.0305 183.541C5.03529 200.136 15.7697 212.547 9.72281 229.947C7.18713 237.244 1.99996 246.237 1.99996 246.237C1.99996 246.237 10.6916 244.374 16.3381 243.704C38.2487 241.101 52.0362 257.696 72.5363 249.536C92.5711 241.56 91.0257 207.252 112.182 211.424C128.307 214.604 139.529 231.988 127.487 243.173C118.029 251.959 108.724 244.745 108.006 237.13C106.284 218.855 128.181 217.106 142.707 217.608C157.714 218.127 166.457 221.877 179.129 229.933C192.445 238.399 197.404 252.44 206.731 259.44C213.286 264.36 224.222 264.554 227.586 257.08C230.84 249.849 227.525 233.447 216.804 239.875C207.693 245.338 219.835 254.265 226.094 256.925C232.353 259.585 246.677 259.497 251.974 254.584C258.989 248.077 261.686 241.477 257.228 233.011C254.709 228.225 244.917 228.07 243.594 233.607C242.637 237.613 245.718 242.458 249.783 241.789C253.847 241.121 252.236 237.52 252.236 237.52" stroke="#5E3023" stroke-width="2"/>
</svg>
