<svg width="110" height="96" viewBox="0 0 110 96" fill="none" xmlns="http://www.w3.org/2000/svg">
<path d="M21.3748 68.1275L24.9521 71.0651C25.7249 71.6998 26.2743 72.0094 26.6003 71.994C27.0544 71.9827 27.4723 71.7446 27.8541 71.2797L28.2408 70.8088L28.5759 71.084L24.255 76.3458L23.9199 76.0707L24.2992 75.6088C24.7256 75.0895 24.8615 74.5794 24.7068 74.0784C24.6188 73.8039 24.2246 73.3791 23.5242 72.804L15.5907 66.2892C14.8178 65.6546 14.2709 65.342 13.9499 65.3513C13.4909 65.3686 13.0705 65.6097 12.6887 66.0746L12.3094 66.5365L11.9743 66.2613L15.6705 61.7602C16.5728 60.6614 17.399 59.8892 18.149 59.4436C18.893 58.9931 19.7122 58.7711 20.6065 58.7777C21.5008 58.7842 22.3163 59.0899 23.0529 59.6948C24.0552 60.5178 24.5976 61.5192 24.6801 62.699C24.7676 63.8727 24.3156 65.0633 23.324 66.2709C23.081 66.5667 22.7971 66.8694 22.4723 67.1788C22.1474 67.4883 21.7816 67.8045 21.3748 68.1275ZM20.8585 67.7036C21.1817 67.4332 21.46 67.1866 21.6935 66.9639C21.9269 66.7411 22.1155 66.5422 22.2593 66.3671C22.775 65.7392 22.9772 65.0005 22.866 64.151C22.7538 63.2906 22.3112 62.543 21.5384 61.9084C21.0071 61.4721 20.4258 61.1767 19.7945 61.0222C19.1571 60.8628 18.5631 60.8906 18.0125 61.1056C17.4558 61.3157 16.9693 61.6743 16.5528 62.1815C16.3 62.4894 16.0326 62.932 15.7506 63.5092L20.8585 67.7036Z" fill="#5E3023"/>
<path d="M28.9111 50.1617C30.0834 49.0363 31.4519 48.5779 33.0169 48.7866C34.3504 48.9685 35.4905 49.5526 36.4374 50.5388C37.1029 51.232 37.6102 52.0932 37.9595 53.1225C38.3087 54.1519 38.3634 55.1282 38.1236 56.0516C37.8894 56.9696 37.4144 57.7721 36.6987 58.4593C35.5321 59.5793 34.1587 60.0044 32.5784 59.7346C31.2459 59.5085 30.1116 58.908 29.1755 57.9331C28.4938 57.223 27.9922 56.3508 27.6707 55.3165C27.3494 54.2712 27.3165 53.3063 27.5722 52.4219C27.8224 51.5319 28.2687 50.7785 28.9111 50.1617ZM29.1766 50.9628C28.8779 51.2495 28.663 51.6292 28.5318 52.1017C28.4009 52.5631 28.4561 53.1058 28.6976 53.7295C28.939 54.3533 29.3952 55.0146 30.0661 55.7134C31.1483 56.8405 32.3042 57.599 33.534 57.9887C34.7693 58.373 35.7534 58.2135 36.486 57.5101C37.0326 56.9853 37.2671 56.327 37.1893 55.5353C37.1115 54.7435 36.545 53.7982 35.49 52.6993C34.1698 51.3242 32.8351 50.5262 31.4858 50.3053C30.5663 50.1484 29.7965 50.3676 29.1766 50.9628Z" fill="#5E3023"/>
<path d="M39.0777 42.8615L41.5343 40.2786L41.9398 40.0945L42.9767 42.3779C43.0909 41.2878 43.323 40.4574 43.6729 39.8866C44.0268 39.3055 44.4847 38.8873 45.0467 38.6321C46.0283 38.1863 47.0208 38.199 48.0241 38.67C49.2543 39.244 50.2119 40.285 50.8967 41.793C51.6623 43.4789 51.8117 45.0927 51.345 46.6346C50.9585 47.8998 50.1607 48.807 48.9514 49.3562C48.425 49.5952 47.9358 49.7273 47.4839 49.7523C47.1509 49.7748 46.7339 49.7068 46.2328 49.5482L47.5847 52.5252C47.8884 53.1938 48.1197 53.5993 48.2787 53.7416C48.4481 53.8878 48.6565 53.969 48.9042 53.9852C49.1589 53.9983 49.553 53.8836 50.0865 53.6414L50.2658 54.0362L45.1442 56.362L44.9649 55.9672L45.2317 55.8461C45.6261 55.6755 45.9265 55.449 46.1329 55.1665C46.2325 55.0269 46.2775 54.852 46.2679 54.6419C46.2686 54.4356 46.1075 53.9768 45.7844 53.2655L41.5882 44.0252C41.3007 43.3921 41.0898 43.0031 40.9553 42.8582C40.8209 42.7134 40.6703 42.6273 40.5035 42.6001C40.3438 42.5697 40.1572 42.6029 39.9438 42.6998C39.7731 42.7773 39.5788 42.9256 39.3608 43.1448L39.0777 42.8615ZM43.2626 43.0074L44.9197 46.6566C45.2783 47.4462 45.5461 47.9509 45.7232 48.1708C46.0101 48.5382 46.4167 48.7911 46.943 48.9297C47.4764 49.065 48.0383 48.9986 48.6287 48.7305C49.34 48.4075 49.7902 47.8684 49.9793 47.1133C50.226 46.126 50.0505 44.9744 49.4529 43.6585C48.7745 42.1647 47.9256 41.1644 46.9062 40.6578C46.1989 40.3097 45.5323 40.2778 44.9064 40.5621C44.5649 40.7171 44.2658 40.9559 44.009 41.2785C43.8111 41.5228 43.5622 42.0991 43.2626 43.0074Z" fill="#5E3023"/>
<path d="M67.3939 29.0464C67.7182 28.9969 68.0101 29.0709 68.2694 29.2684C68.5353 29.457 68.6929 29.7135 68.7424 30.0379C68.7919 30.3623 68.7185 30.658 68.5221 30.925C68.3335 31.1909 68.077 31.3486 67.7527 31.3981C67.4283 31.4475 67.1326 31.3741 66.8655 31.1778C66.5985 30.9814 66.4402 30.7211 66.3907 30.3967C66.3412 30.0723 66.4114 29.7811 66.6012 29.5229C66.7975 29.2559 67.0618 29.097 67.3939 29.0464ZM69.202 34.4487L70.5028 42.9751C70.6042 43.6393 70.7182 44.0763 70.8451 44.2861C70.9785 44.487 71.1461 44.6274 71.348 44.7073C71.5575 44.7859 71.9133 44.787 72.4153 44.7104L72.479 45.1274L67.3238 45.9139L67.2601 45.4969C67.7776 45.4179 68.1175 45.3147 68.2798 45.1872C68.4421 45.0597 68.5558 44.8725 68.6208 44.6255C68.6936 44.3773 68.6799 43.9249 68.5798 43.2685L67.9559 39.1791C67.7803 38.0283 67.6318 37.2883 67.5105 36.9591C67.4187 36.7202 67.3078 36.5633 67.1779 36.4883C67.0467 36.4056 66.8807 36.3795 66.6799 36.4101C66.4637 36.4431 66.2099 36.5411 65.9187 36.7041L65.6928 36.3118L68.6923 34.5265L69.202 34.4487Z" fill="#5E3023"/>
<path d="M78.1008 30.847L78.2081 34.3728L80.7147 34.2965L80.7397 35.1164L78.233 35.1927L78.4448 42.1504C78.4659 42.8454 78.5778 43.311 78.7804 43.5471C78.9908 43.783 79.2521 43.8962 79.5645 43.8867C79.8222 43.8788 80.0697 43.7932 80.307 43.6296C80.5441 43.4583 80.7243 43.2144 80.8475 42.898L81.3043 42.8841C81.0543 43.6577 80.6854 44.2473 80.1975 44.6529C79.7094 45.0508 79.1998 45.2578 78.6688 45.2739C78.3096 45.2849 77.9552 45.198 77.6057 45.0132C77.2559 44.8206 76.9934 44.5433 76.8183 44.1813C76.6429 43.8115 76.5434 43.24 76.5199 42.4669L76.3003 35.2515L74.6019 35.3032L74.5901 34.9167C75.0144 34.7318 75.4429 34.4296 75.8756 34.0099C76.316 33.5823 76.7033 33.082 77.0376 32.5091C77.2081 32.2069 77.4415 31.6565 77.7377 30.8581L78.1008 30.847Z" fill="#5E3023"/>
<path d="M90.3976 43.2842L89.9659 43.1749L91.2951 33.7199C91.3513 33.307 91.4042 33.002 91.4541 32.8051C91.5748 32.328 91.7966 31.9771 92.1194 31.7526C92.4497 31.53 92.7929 31.4637 93.1488 31.5538C93.5048 31.6439 93.7675 31.8635 93.9371 32.2126C94.1142 32.5637 94.1308 33.0232 93.9871 33.5912C93.9411 33.773 93.8617 34.0229 93.749 34.3409L90.3976 43.2842ZM89.6931 45.1125C90.0415 45.2007 90.3053 45.4004 90.4844 45.7117C90.673 46.0173 90.7241 46.3405 90.6379 46.6813C90.5497 47.0297 90.349 47.2973 90.0358 47.4839C89.7321 47.665 89.4061 47.7114 89.0577 47.6232C88.7093 47.535 88.4408 47.3382 88.2522 47.0325C88.0731 46.7213 88.0277 46.3914 88.1158 46.0431C88.2021 45.7022 88.3971 45.4413 88.7008 45.2603C89.0139 45.0736 89.3447 45.0244 89.6931 45.1125Z" fill="#5E3023"/>
</svg>
