<svg width="62" height="62" viewBox="0 0 62 62" fill="none" xmlns="http://www.w3.org/2000/svg">
<path d="M31 61C27.0603 61 23.1593 60.224 19.5195 58.7164C15.8797 57.2087 12.5726 54.999 9.7868 52.2132C7.00104 49.4274 4.79126 46.1203 3.28361 42.4805C1.77597 38.8407 1 34.9397 1 31C1 27.0603 1.77597 23.1593 3.28361 19.5195C4.79126 15.8797 7.00104 12.5726 9.7868 9.7868C12.5726 7.00104 15.8797 4.79126 19.5195 3.28361C23.1593 1.77597 27.0603 1 31 1C38.9565 1 46.5871 4.16071 52.2132 9.7868C57.8393 15.4129 61 23.0435 61 31C61 38.9565 57.8393 46.5871 52.2132 52.2132C46.5871 57.8393 38.9565 61 31 61ZM31 61V26.7143C31 24.441 31.9031 22.2608 33.5105 20.6534C35.118 19.0459 37.2981 18.1429 39.5714 18.1429H41.7143M20.2857 35.2857H41.7143" stroke="#5E3023" stroke-width="2"/>
</svg>
