<svg width="55" height="55" viewBox="0 0 55 55" fill="none" xmlns="http://www.w3.org/2000/svg">
<path d="M27.2499 38.9168C30.3441 38.9168 33.3116 37.6877 35.4995 35.4997C37.6874 33.3118 38.9166 30.3444 38.9166 27.2502C38.9166 24.156 37.6874 21.1885 35.4995 19.0006C33.3116 16.8127 30.3441 15.5835 27.2499 15.5835C24.1557 15.5835 21.1883 16.8127 19.0003 19.0006C16.8124 21.1885 15.5833 24.156 15.5833 27.2502C15.5833 30.3444 16.8124 33.3118 19.0003 35.4997C21.1883 37.6877 24.1557 38.9168 27.2499 38.9168Z" stroke="#5E3023" stroke-width="2" stroke-linecap="round" stroke-linejoin="round"/>
<path d="M1 38.9167V15.5833C1 11.7156 2.53645 8.00627 5.27136 5.27136C8.00627 2.53645 11.7156 1 15.5833 1H38.9167C42.7844 1 46.4937 2.53645 49.2286 5.27136C51.9635 8.00627 53.5 11.7156 53.5 15.5833V38.9167C53.5 42.7844 51.9635 46.4937 49.2286 49.2286C46.4937 51.9635 42.7844 53.5 38.9167 53.5H15.5833C11.7156 53.5 8.00627 51.9635 5.27136 49.2286C2.53645 46.4937 1 42.7844 1 38.9167Z" stroke="#5E3023" stroke-width="2"/>
<path d="M43.2917 11.2377L43.3213 11.2056" stroke="#5E3023" stroke-width="2" stroke-linecap="round" stroke-linejoin="round"/>
</svg>
