<svg width="929" height="921" viewBox="0 0 929 921" fill="none" xmlns="http://www.w3.org/2000/svg">
<path d="M0.5 1.9997C0.5 1.9997 166 -7.5003 217.5 43.4997C334.5 159.364 67 215 41 135.5C0.47229 11.5776 245.458 42.0039 346.5 100.5C446.542 158.417 373.638 296.005 458.5 374.5C526.127 437.053 579.123 432.655 669.5 450.5C748 466 817.909 442.255 870.5 475.5C932.798 514.881 930.737 581.985 925.5 655.5C921.988 704.805 906.601 735.735 870.5 769.5C819.919 816.808 766.756 808.5 697.5 808.5C614 808.5 559.461 769.679 487 808.5C435.085 836.314 386 920.5 386 920.5" stroke="#5E3023" stroke-width="2"/>
</svg>
