<svg width="1008" height="902" viewBox="0 0 1008 902" fill="none" xmlns="http://www.w3.org/2000/svg">
<path d="M1 1.5C1 1.5 271.5 29.5 307.5 176.5C346.668 336.436 88 301 57 233.5C1.24901 112.107 239.458 76.5042 340.5 135C440.542 192.917 380.138 292.006 465 370.5C532.627 433.053 592.5 431.5 682.5 431.5C762.516 431.5 883.909 430.255 936.5 463.5C998.798 502.881 1010.24 578.985 1005 652.5C1000.41 717 942 756 897.5 773.5C833.049 798.846 779.309 797.353 710.5 789.5C618.5 779 514 704 423.5 773.5C376.788 809.373 399 901.5 399 901.5" stroke="#5E3023" stroke-width="2"/>
</svg>
