<svg width="58" height="35" viewBox="0 0 58 35" fill="none" xmlns="http://www.w3.org/2000/svg">
<path d="M56.7656 4.07401C57.3025 4.20348 57.8427 3.87319 57.9721 3.33629C58.1016 2.7994 57.7713 2.2592 57.2344 2.12974L56.7656 4.07401ZM27.83 3.10186L28.1457 4.05071L27.83 3.10186ZM7.02711 34.0178C7.41758 34.4083 8.05074 34.4084 8.44132 34.018L14.8062 27.6549C15.1968 27.2644 15.1969 26.6313 14.8064 26.2407C14.4159 25.8501 13.7828 25.85 13.3922 26.2405L7.73452 31.8965L2.07847 26.2389C1.68801 25.8483 1.05484 25.8482 0.664261 26.2387C0.273681 26.6291 0.27359 27.2623 0.664058 27.6529L7.02711 34.0178ZM57 3.10188C57.2344 2.12974 57.2342 2.12968 57.2338 2.1296C57.2337 2.12956 57.2333 2.12947 57.2329 2.12937C57.2321 2.12919 57.2311 2.12894 57.2298 2.12864C57.2273 2.12803 57.2237 2.12717 57.2191 2.12608C57.2099 2.12389 57.1966 2.12075 57.1794 2.11671C57.145 2.10863 57.0946 2.09694 57.029 2.08201C56.8978 2.05214 56.7055 2.00931 56.4575 1.95652C55.9616 1.85094 55.2424 1.70545 54.3423 1.54405C52.5427 1.22141 50.0154 0.834449 47.0994 0.576382C41.2935 0.0625587 33.8377 0.0489115 27.5142 2.15301L28.1457 4.05071C34.0789 2.07646 41.2082 2.06282 46.9231 2.5686C49.7675 2.82033 52.2346 3.19806 53.9893 3.51266C54.8663 3.66989 55.5642 3.81115 56.0411 3.91268C56.2795 3.96344 56.4626 4.00425 56.5851 4.03213C56.6464 4.04608 56.6925 4.05679 56.7228 4.06389C56.7379 4.06744 56.7491 4.07009 56.7563 4.0718C56.7599 4.07265 56.7624 4.07326 56.764 4.07363C56.7648 4.07382 56.7653 4.07394 56.7656 4.07401C56.7657 4.07404 56.7657 4.07404 56.7658 4.07406C56.7657 4.07404 56.7656 4.07401 57 3.10188ZM27.5142 2.15301C17.0882 5.62219 11.8892 13.4703 9.31092 20.363C8.02228 23.8081 7.37938 27.0332 7.05791 29.396C6.897 30.5786 6.81615 31.5489 6.77549 32.2271C6.75516 32.5663 6.74487 32.8328 6.73966 33.0166C6.73705 33.1085 6.73572 33.1798 6.73503 33.2292C6.73469 33.2539 6.73451 33.2732 6.73442 33.2868C6.73437 33.2936 6.73435 33.299 6.73433 33.303C6.73432 33.3049 6.73432 33.3066 6.73432 33.3079C6.73432 33.3085 6.73432 33.3092 6.73432 33.3095C6.73432 33.3101 6.73432 33.3106 7.73432 33.3107C8.73432 33.3109 8.73432 33.3112 8.73431 33.3115C8.73431 33.3114 8.73431 33.3116 8.73431 33.3115C8.73432 33.3113 8.73432 33.3108 8.73432 33.31C8.73433 33.3082 8.73434 33.3051 8.73437 33.3006C8.73443 33.2915 8.73456 33.2769 8.73484 33.2569C8.7354 33.2169 8.73653 33.1553 8.73886 33.0733C8.74351 32.9093 8.75291 32.6638 8.77191 32.3468C8.80993 31.7124 8.88631 30.7927 9.03965 29.6656C9.34671 27.4088 9.96041 24.3353 11.1842 21.0637C13.6306 14.5235 18.4794 7.2671 28.1457 4.05071L27.5142 2.15301Z" fill="#5E3023"/>
</svg>
