<svg width="57" height="48" viewBox="0 0 57 48" fill="none" xmlns="http://www.w3.org/2000/svg">
<path d="M54.85 8.05833C54.5377 6.69415 53.9244 5.44928 53.0713 4.44778C52.2181 3.44629 51.1548 2.72314 49.9875 2.35042C45.7 1 28.5 1 28.5 1C28.5 1 11.3 1 7.0125 2.35042C5.84515 2.72314 4.7819 3.44629 3.92874 4.44778C3.07558 5.44928 2.46229 6.69415 2.15 8.05833C1 13.0983 1 23.6042 1 23.6042C1 23.6042 1 34.11 2.15 39.15C2.46191 40.5147 3.07503 41.7602 3.92822 42.7622C4.7814 43.7643 5.84485 44.4879 7.0125 44.8608C11.3025 46.2083 28.5 46.2083 28.5 46.2083C28.5 46.2083 45.7 46.2083 49.9875 44.8608C51.1551 44.4879 52.2186 43.7643 53.0718 42.7622C53.925 41.7602 54.5381 40.5147 54.85 39.15C56 34.1158 56 23.6042 56 23.6042C56 23.6042 56 13.0983 54.85 8.05833ZM22.875 33.1446V14.0667L37.25 23.6071L22.875 33.1446Z" stroke="#5E3023" stroke-width="2" stroke-miterlimit="10" stroke-linejoin="round"/>
</svg>
